<svg width="30" height="30" viewBox="0 0 30 30" fill="none" xmlns="http://www.w3.org/2000/svg">
<circle cx="15" cy="15" r="15" fill="white"/>
<path fill-rule="evenodd" clip-rule="evenodd" d="M24.9933 19.2409C24.9454 20.2936 24.778 21.0123 24.5337 21.6415C24.0199 22.9699 22.9698 24.02 21.6414 24.5337C21.0125 24.7781 20.2935 24.9452 19.2411 24.9933C18.1865 25.0414 17.8496 25.053 15.1639 25.053C12.4779 25.053 12.1413 25.0414 11.0865 24.9933C10.034 24.9452 9.315 24.7781 8.68615 24.5337C8.02602 24.2854 7.42844 23.8962 6.93439 23.3929C6.43141 22.8992 6.04222 22.3013 5.79389 21.6415C5.54949 21.0126 5.3821 20.2936 5.33427 19.2411C5.28565 18.1863 5.27435 17.8494 5.27435 15.1637C5.27435 12.478 5.28565 12.1411 5.33401 11.0865C5.38183 10.0338 5.54897 9.31506 5.79336 8.68594C6.0417 8.02608 6.43115 7.42824 6.93439 6.93445C7.42817 6.43121 8.02602 6.04202 8.68588 5.79369C9.315 5.54929 10.0337 5.38216 11.0865 5.33407C12.141 5.28598 12.4779 5.27441 15.1636 5.27441C17.8493 5.27441 18.1862 5.28598 19.2408 5.33433C20.2935 5.38216 21.0123 5.54929 21.6414 5.79342C22.3013 6.04176 22.8991 6.43121 23.3931 6.93445C23.8961 7.4285 24.2856 8.02608 24.5337 8.68594C24.7783 9.31506 24.9454 10.0338 24.9935 11.0865C25.0416 12.1411 25.0529 12.478 25.0529 15.1637C25.0529 17.8494 25.0416 18.1863 24.9933 19.2409ZM22.1331 8.19427C22.4616 8.51329 22.7144 8.90196 22.8728 9.33135C23.0084 9.67981 23.1695 10.2036 23.2134 11.1677C23.261 12.2105 23.271 12.5232 23.271 15.164C23.271 17.8045 23.261 18.1172 23.2134 19.1602C23.1693 20.1244 23.0082 20.6478 22.8728 20.9963C22.5401 21.8588 21.8585 22.5405 20.996 22.8731C20.6475 23.0087 20.1238 23.1698 19.1596 23.2137C18.1171 23.2613 17.8044 23.2713 15.1634 23.2713C12.5226 23.2713 12.2102 23.2613 11.1674 23.2137C10.2032 23.1698 9.67949 23.0087 9.33103 22.8731C8.90137 22.7147 8.51297 22.4619 8.19394 22.1334C7.86546 21.8144 7.61291 21.426 7.45419 20.9963C7.31885 20.6478 7.15776 20.1244 7.11388 19.1602C7.06631 18.1172 7.05606 17.8045 7.05606 15.164C7.05606 12.5232 7.06631 12.2105 7.11388 11.1677C7.15776 10.2036 7.31885 9.67981 7.45419 9.33135C7.61291 8.90169 7.86572 8.51329 8.1942 8.19427C8.51297 7.86578 8.90163 7.61298 9.33129 7.45451C9.67949 7.31918 10.2032 7.15809 11.1674 7.11394C12.2102 7.06637 12.5229 7.05639 15.1636 7.05639C17.8041 7.05639 18.1169 7.06664 19.1599 7.1142C20.124 7.15809 20.6475 7.31918 20.996 7.45451C21.4256 7.61298 21.814 7.86578 22.1331 8.19427Z" fill="#F07D00"/>
<path fill-rule="evenodd" clip-rule="evenodd" d="M15.1636 20.2418C12.3589 20.2418 10.0852 17.9684 10.0852 15.1637C10.0852 12.359 12.3589 10.0856 15.1636 10.0856C17.9681 10.0856 20.2418 12.359 20.2418 15.1637C20.2418 17.9684 17.9681 20.2418 15.1636 20.2418ZM15.1636 18.4601C16.9842 18.4601 18.4601 16.9843 18.4601 15.1637C18.4601 13.3431 16.9842 11.8673 15.1636 11.8673C13.343 11.8673 11.8672 13.3431 11.8672 15.1637C11.8672 16.9843 13.343 18.4601 15.1636 18.4601Z" fill="#F07D00"/>
<path d="M20.4425 11.0715C19.7872 11.0715 19.2558 10.5402 19.2558 9.88479C19.2558 9.22939 19.7872 8.69803 20.4425 8.69803C21.0979 8.69803 21.6293 9.22939 21.6293 9.88479C21.629 10.5402 21.0979 11.0715 20.4425 11.0715Z" fill="#F07D00"/>
</svg>
